<svg xmlns="http://www.w3.org/2000/svg" viewBox="0 0 420 760" role="img" aria-label="林夏犹豫立绘">
  <defs>
    <linearGradient id="coat" x1="0" y1="0" x2="1" y2="1">
      <stop stop-color="#b45309"/>
      <stop offset="1" stop-color="#78350f"/>
    </linearGradient>
  </defs>
  <path d="M92 742c18-158 54-252 120-252 72 0 112 94 132 252z" fill="#111827" opacity=".38"/>
  <path d="M112 742c18-146 44-228 100-228 58 0 88 82 106 228z" fill="url(#coat)"/>
  <path d="M152 520c28 42 92 44 122 0l18 222H132z" fill="#1f2937"/>
  <ellipse cx="212" cy="284" rx="112" ry="132" fill="#2b211d"/>
  <circle cx="214" cy="302" r="96" fill="#f2c4a3"/>
  <path d="M126 274c28-102 134-152 218-70-54-9-123 3-218 70z" fill="#2b211d"/>
  <path d="M124 308c26 60 36 125 28 188-44-42-62-118-28-188z" fill="#2b211d"/>
  <path d="M307 302c-22 60-26 122-10 184 40-42 52-112 10-184z" fill="#2b211d"/>
  <path d="M168 298c18-11 35-11 52 2" stroke="#111827" stroke-width="7" fill="none" stroke-linecap="round"/>
  <path d="M230 300c18-13 36-13 54-2" stroke="#111827" stroke-width="7" fill="none" stroke-linecap="round"/>
  <path d="M198 362c18-10 40-10 60 0" stroke="#9a5a47" stroke-width="7" fill="none" stroke-linecap="round"/>
  <rect x="258" y="478" width="70" height="126" rx="18" fill="#0a0a0a"/>
  <rect x="270" y="494" width="46" height="84" rx="8" fill="#1e293b"/>
</svg>
